<svg width="512" height="512" viewBox="0 0 512 512" fill="none" xmlns="http://www.w3.org/2000/svg">
<circle cx="256" cy="256" r="256" fill="#315B39"/>
<path fill-rule="evenodd" clip-rule="evenodd" d="M256 499.554C390.511 499.554 499.554 390.511 499.554 256C499.554 121.489 390.511 12.4455 256 12.4455C121.489 12.4455 12.4455 121.489 12.4455 256C12.4455 390.511 121.489 499.554 256 499.554ZM256 512C397.385 512 512 397.385 512 256C512 114.615 397.385 0 256 0C114.615 0 0 114.615 0 256C0 397.385 114.615 512 256 512Z" fill="#090D02"/>
<path fill-rule="evenodd" clip-rule="evenodd" d="M131.487 372.219V397.938H382.009V304.57H337.043L330.62 359.899L325.304 367.464H248.22V261.827L278.99 251.906L285.86 219.827L248.22 231.831V134.91L255.972 128.426L286.319 126.697V100.978H131.487V126.697L161.611 128.426L167.37 134.91V257.616L135.602 267.748L129.422 300.127L167.37 287.893V362.061L158.732 370.49L131.487 372.219Z" fill="#F0E5C9"/>
</svg>
